<mxfile host="app.diagrams.net" modified="2023-05-05T01:40:50.412Z" agent="Mozilla/5.0 (Windows NT 10.0; Win64; x64) AppleWebKit/537.36 (KHTML, like Gecko) Chrome/113.0.0.0 Safari/537.36" etag="KmLTwwsP3ZU6zhqynT9R" version="21.2.7" type="github">
  <diagram name="Page-1" id="zjfbpMshE802uo1-hrL4">
    <mxGraphModel dx="2261" dy="806" grid="1" gridSize="10" guides="1" tooltips="1" connect="1" arrows="1" fold="1" page="1" pageScale="1" pageWidth="827" pageHeight="1169" math="0" shadow="0">
      <root>
        <mxCell id="0" />
        <mxCell id="1" parent="0" />
        <mxCell id="QM-WjJRXP1hA1JC_6yWo-22" style="edgeStyle=orthogonalEdgeStyle;rounded=0;orthogonalLoop=1;jettySize=auto;html=1;endArrow=block;endFill=0;endSize=8;" parent="1" source="QM-WjJRXP1hA1JC_6yWo-1" target="QM-WjJRXP1hA1JC_6yWo-7" edge="1">
          <mxGeometry relative="1" as="geometry">
            <Array as="points">
              <mxPoint x="120" y="360" />
              <mxPoint x="268" y="360" />
            </Array>
          </mxGeometry>
        </mxCell>
        <mxCell id="QM-WjJRXP1hA1JC_6yWo-1" value="SignDiscrete" style="swimlane;fontStyle=1;align=center;verticalAlign=top;childLayout=stackLayout;horizontal=1;startSize=26;horizontalStack=0;resizeParent=1;resizeParentMax=0;resizeLast=0;collapsible=1;marginBottom=0;whiteSpace=wrap;html=1;" parent="1" vertex="1">
          <mxGeometry x="-10" y="395" width="260" height="190" as="geometry" />
        </mxCell>
        <mxCell id="QM-WjJRXP1hA1JC_6yWo-2" value="+ data_frame: type" style="text;strokeColor=none;fillColor=none;align=left;verticalAlign=top;spacingLeft=4;spacingRight=4;overflow=hidden;rotatable=0;points=[[0,0.5],[1,0.5]];portConstraint=eastwest;whiteSpace=wrap;html=1;" parent="QM-WjJRXP1hA1JC_6yWo-1" vertex="1">
          <mxGeometry y="26" width="260" height="26" as="geometry" />
        </mxCell>
        <mxCell id="QM-WjJRXP1hA1JC_6yWo-3" value="" style="line;strokeWidth=1;fillColor=none;align=left;verticalAlign=middle;spacingTop=-1;spacingLeft=3;spacingRight=3;rotatable=0;labelPosition=right;points=[];portConstraint=eastwest;strokeColor=inherit;" parent="QM-WjJRXP1hA1JC_6yWo-1" vertex="1">
          <mxGeometry y="52" width="260" height="8" as="geometry" />
        </mxCell>
        <mxCell id="QM-WjJRXP1hA1JC_6yWo-5" value="+ __init__(name: &lt;span style=&quot;white-space: pre;&quot;&gt; &lt;/span&gt;&lt;span style=&quot;white-space: pre;&quot;&gt; &lt;/span&gt;&amp;nbsp;str, &lt;br&gt;&lt;span style=&quot;white-space: pre;&quot;&gt; &lt;span style=&quot;white-space: pre;&quot;&gt; &lt;/span&gt; &lt;/span&gt;posible_value: list[ T ],&lt;br&gt;&lt;span style=&quot;white-space: pre;&quot;&gt; &lt;/span&gt;&lt;span style=&quot;white-space: pre;&quot;&gt; &lt;/span&gt;&amp;nbsp;normal_value: T):&lt;br&gt;&lt;span style=&quot;white-space: pre;&quot;&gt; &lt;/span&gt;SignDiscrete" style="text;strokeColor=none;fillColor=none;align=left;verticalAlign=top;spacingLeft=4;spacingRight=4;overflow=hidden;rotatable=0;points=[[0,0.5],[1,0.5]];portConstraint=eastwest;whiteSpace=wrap;html=1;" parent="QM-WjJRXP1hA1JC_6yWo-1" vertex="1">
          <mxGeometry y="60" width="260" height="70" as="geometry" />
        </mxCell>
        <mxCell id="QM-WjJRXP1hA1JC_6yWo-16" value="+ createExamples(exeptiion, &lt;br&gt;&lt;span style=&quot;white-space: pre;&quot;&gt; &lt;/span&gt;&lt;span style=&quot;white-space: pre;&quot;&gt; &lt;/span&gt;&lt;span style=&quot;white-space: pre;&quot;&gt; &lt;/span&gt;&amp;nbsp; &amp;nbsp; &amp;nbsp; exemple_count_bondaries): &lt;br&gt;&lt;span style=&quot;white-space: pre;&quot;&gt; &lt;/span&gt;List" style="text;strokeColor=none;fillColor=none;align=left;verticalAlign=top;spacingLeft=4;spacingRight=4;overflow=hidden;rotatable=0;points=[[0,0.5],[1,0.5]];portConstraint=eastwest;whiteSpace=wrap;html=1;" parent="QM-WjJRXP1hA1JC_6yWo-1" vertex="1">
          <mxGeometry y="130" width="260" height="60" as="geometry" />
        </mxCell>
        <mxCell id="QM-WjJRXP1hA1JC_6yWo-7" value="&lt;i&gt;Sign&lt;/i&gt;" style="swimlane;fontStyle=1;align=center;verticalAlign=top;childLayout=stackLayout;horizontal=1;startSize=26;horizontalStack=0;resizeParent=1;resizeParentMax=0;resizeLast=0;collapsible=1;marginBottom=0;whiteSpace=wrap;html=1;" parent="1" vertex="1">
          <mxGeometry x="94" y="130" width="356" height="190" as="geometry" />
        </mxCell>
        <mxCell id="QM-WjJRXP1hA1JC_6yWo-28" value="+ name: str" style="text;strokeColor=none;fillColor=none;align=left;verticalAlign=top;spacingLeft=4;spacingRight=4;overflow=hidden;rotatable=0;points=[[0,0.5],[1,0.5]];portConstraint=eastwest;whiteSpace=wrap;html=1;" parent="QM-WjJRXP1hA1JC_6yWo-7" vertex="1">
          <mxGeometry y="26" width="356" height="26" as="geometry" />
        </mxCell>
        <mxCell id="QM-WjJRXP1hA1JC_6yWo-29" value="+ posible_value: type" style="text;strokeColor=none;fillColor=none;align=left;verticalAlign=top;spacingLeft=4;spacingRight=4;overflow=hidden;rotatable=0;points=[[0,0.5],[1,0.5]];portConstraint=eastwest;whiteSpace=wrap;html=1;" parent="QM-WjJRXP1hA1JC_6yWo-7" vertex="1">
          <mxGeometry y="52" width="356" height="26" as="geometry" />
        </mxCell>
        <mxCell id="QM-WjJRXP1hA1JC_6yWo-30" value="+ normal_value: type" style="text;strokeColor=none;fillColor=none;align=left;verticalAlign=top;spacingLeft=4;spacingRight=4;overflow=hidden;rotatable=0;points=[[0,0.5],[1,0.5]];portConstraint=eastwest;whiteSpace=wrap;html=1;" parent="QM-WjJRXP1hA1JC_6yWo-7" vertex="1">
          <mxGeometry y="78" width="356" height="26" as="geometry" />
        </mxCell>
        <mxCell id="QM-WjJRXP1hA1JC_6yWo-8" value="+ data_frame: type" style="text;strokeColor=none;fillColor=none;align=left;verticalAlign=top;spacingLeft=4;spacingRight=4;overflow=hidden;rotatable=0;points=[[0,0.5],[1,0.5]];portConstraint=eastwest;whiteSpace=wrap;html=1;" parent="QM-WjJRXP1hA1JC_6yWo-7" vertex="1">
          <mxGeometry y="104" width="356" height="26" as="geometry" />
        </mxCell>
        <mxCell id="QM-WjJRXP1hA1JC_6yWo-9" value="" style="line;strokeWidth=1;fillColor=none;align=left;verticalAlign=middle;spacingTop=-1;spacingLeft=3;spacingRight=3;rotatable=0;labelPosition=right;points=[];portConstraint=eastwest;strokeColor=inherit;" parent="QM-WjJRXP1hA1JC_6yWo-7" vertex="1">
          <mxGeometry y="130" width="356" height="8" as="geometry" />
        </mxCell>
        <mxCell id="QM-WjJRXP1hA1JC_6yWo-10" value="+ __init__(name, posible_value, normal_value): Sign" style="text;strokeColor=none;fillColor=none;align=left;verticalAlign=top;spacingLeft=4;spacingRight=4;overflow=hidden;rotatable=0;points=[[0,0.5],[1,0.5]];portConstraint=eastwest;whiteSpace=wrap;html=1;" parent="QM-WjJRXP1hA1JC_6yWo-7" vertex="1">
          <mxGeometry y="138" width="356" height="26" as="geometry" />
        </mxCell>
        <mxCell id="QM-WjJRXP1hA1JC_6yWo-11" value="+ &lt;i&gt;createExamples&lt;/i&gt;(exeptiion, exemple_count_bondaries): List" style="text;strokeColor=none;fillColor=none;align=left;verticalAlign=top;spacingLeft=4;spacingRight=4;overflow=hidden;rotatable=0;points=[[0,0.5],[1,0.5]];portConstraint=eastwest;whiteSpace=wrap;html=1;" parent="QM-WjJRXP1hA1JC_6yWo-7" vertex="1">
          <mxGeometry y="164" width="356" height="26" as="geometry" />
        </mxCell>
        <mxCell id="QM-WjJRXP1hA1JC_6yWo-21" style="edgeStyle=orthogonalEdgeStyle;rounded=0;orthogonalLoop=1;jettySize=auto;html=1;endArrow=block;endFill=0;strokeWidth=1;endSize=8;" parent="1" source="QM-WjJRXP1hA1JC_6yWo-12" target="QM-WjJRXP1hA1JC_6yWo-7" edge="1">
          <mxGeometry relative="1" as="geometry">
            <mxPoint x="268" y="302" as="targetPoint" />
            <Array as="points">
              <mxPoint x="500" y="360" />
              <mxPoint x="268" y="360" />
            </Array>
          </mxGeometry>
        </mxCell>
        <mxCell id="QM-WjJRXP1hA1JC_6yWo-12" value="SignContinuous" style="swimlane;fontStyle=1;align=center;verticalAlign=top;childLayout=stackLayout;horizontal=1;startSize=26;horizontalStack=0;resizeParent=1;resizeParentMax=0;resizeLast=0;collapsible=1;marginBottom=0;whiteSpace=wrap;html=1;" parent="1" vertex="1">
          <mxGeometry x="320" y="395" width="350" height="248" as="geometry" />
        </mxCell>
        <mxCell id="QM-WjJRXP1hA1JC_6yWo-13" value="+ data_frame: type" style="text;strokeColor=none;fillColor=none;align=left;verticalAlign=top;spacingLeft=4;spacingRight=4;overflow=hidden;rotatable=0;points=[[0,0.5],[1,0.5]];portConstraint=eastwest;whiteSpace=wrap;html=1;" parent="QM-WjJRXP1hA1JC_6yWo-12" vertex="1">
          <mxGeometry y="26" width="350" height="26" as="geometry" />
        </mxCell>
        <mxCell id="QM-WjJRXP1hA1JC_6yWo-17" value="+&amp;nbsp;val_min" style="text;strokeColor=none;fillColor=none;align=left;verticalAlign=top;spacingLeft=4;spacingRight=4;overflow=hidden;rotatable=0;points=[[0,0.5],[1,0.5]];portConstraint=eastwest;whiteSpace=wrap;html=1;" parent="QM-WjJRXP1hA1JC_6yWo-12" vertex="1">
          <mxGeometry y="52" width="350" height="26" as="geometry" />
        </mxCell>
        <mxCell id="QM-WjJRXP1hA1JC_6yWo-18" value="+&amp;nbsp;val_max" style="text;strokeColor=none;fillColor=none;align=left;verticalAlign=top;spacingLeft=4;spacingRight=4;overflow=hidden;rotatable=0;points=[[0,0.5],[1,0.5]];portConstraint=eastwest;whiteSpace=wrap;html=1;" parent="QM-WjJRXP1hA1JC_6yWo-12" vertex="1">
          <mxGeometry y="78" width="350" height="26" as="geometry" />
        </mxCell>
        <mxCell id="QM-WjJRXP1hA1JC_6yWo-14" value="" style="line;strokeWidth=1;fillColor=none;align=left;verticalAlign=middle;spacingTop=-1;spacingLeft=3;spacingRight=3;rotatable=0;labelPosition=right;points=[];portConstraint=eastwest;strokeColor=inherit;" parent="QM-WjJRXP1hA1JC_6yWo-12" vertex="1">
          <mxGeometry y="104" width="350" height="8" as="geometry" />
        </mxCell>
        <mxCell id="QM-WjJRXP1hA1JC_6yWo-19" value="+ __init__(name:&lt;span style=&quot;white-space: pre;&quot;&gt; &lt;/span&gt;&lt;span style=&quot;white-space: pre;&quot;&gt; &lt;/span&gt;&amp;nbsp;str, &lt;br&gt;&lt;span style=&quot;white-space: pre;&quot;&gt; &lt;/span&gt;&lt;span style=&quot;white-space: pre;&quot;&gt; &lt;/span&gt;&amp;nbsp;val_min: &lt;span style=&quot;white-space: pre;&quot;&gt; &lt;/span&gt;&lt;span style=&quot;white-space: pre;&quot;&gt; &lt;/span&gt;&amp;nbsp;float,&lt;br&gt;&lt;span style=&quot;white-space: pre;&quot;&gt; &lt;/span&gt;&lt;span style=&quot;white-space: pre;&quot;&gt; &lt;/span&gt;&amp;nbsp;val_max: &lt;span style=&quot;white-space: pre;&quot;&gt; &lt;/span&gt;&amp;nbsp;float,&lt;br&gt;&lt;span style=&quot;white-space: pre;&quot;&gt; &lt;span style=&quot;white-space: pre;&quot;&gt; &lt;/span&gt; &lt;/span&gt;normal_value: float): &lt;br&gt;&lt;span style=&quot;white-space: pre;&quot;&gt; &lt;/span&gt;SignDiscrete" style="text;strokeColor=none;fillColor=none;align=left;verticalAlign=top;spacingLeft=4;spacingRight=4;overflow=hidden;rotatable=0;points=[[0,0.5],[1,0.5]];portConstraint=eastwest;whiteSpace=wrap;html=1;" parent="QM-WjJRXP1hA1JC_6yWo-12" vertex="1">
          <mxGeometry y="112" width="350" height="78" as="geometry" />
        </mxCell>
        <mxCell id="QM-WjJRXP1hA1JC_6yWo-20" value="+ createExamples(exeptiion: &lt;span style=&quot;white-space: pre;&quot;&gt; &lt;/span&gt;&lt;span style=&quot;white-space: pre;&quot;&gt; &lt;/span&gt;&lt;span style=&quot;white-space: pre;&quot;&gt; &lt;/span&gt;&lt;span style=&quot;white-space: pre;&quot;&gt; &lt;/span&gt;&amp;nbsp; tuple[float, float], &lt;br&gt;&lt;span style=&quot;&quot;&gt; &lt;/span&gt;&lt;span style=&quot;&quot;&gt; &lt;/span&gt;&lt;span style=&quot;&quot;&gt; &lt;/span&gt;&amp;nbsp; &amp;nbsp; &amp;nbsp; &lt;span style=&quot;white-space: pre;&quot;&gt; &lt;/span&gt;&lt;span style=&quot;white-space: pre;&quot;&gt; &lt;/span&gt;&lt;span style=&quot;white-space: pre;&quot;&gt; &lt;/span&gt;&amp;nbsp; &amp;nbsp; &amp;nbsp; exemple_count_bondaries: tuple[float, float]): &lt;br&gt;&lt;span style=&quot;white-space: pre;&quot;&gt; &lt;/span&gt;list" style="text;strokeColor=none;fillColor=none;align=left;verticalAlign=top;spacingLeft=4;spacingRight=4;overflow=hidden;rotatable=0;points=[[0,0.5],[1,0.5]];portConstraint=eastwest;whiteSpace=wrap;html=1;" parent="QM-WjJRXP1hA1JC_6yWo-12" vertex="1">
          <mxGeometry y="190" width="350" height="58" as="geometry" />
        </mxCell>
        <mxCell id="QM-WjJRXP1hA1JC_6yWo-23" value="PeriodsDynamic" style="swimlane;fontStyle=1;align=center;verticalAlign=top;childLayout=stackLayout;horizontal=1;startSize=26;horizontalStack=0;resizeParent=1;resizeParentMax=0;resizeLast=0;collapsible=1;marginBottom=0;whiteSpace=wrap;html=1;" parent="1" vertex="1">
          <mxGeometry x="580" y="130" width="356" height="170" as="geometry" />
        </mxCell>
        <mxCell id="QM-WjJRXP1hA1JC_6yWo-24" value="+ period_time_boundaries: list[tuple[int, int]]" style="text;strokeColor=none;fillColor=none;align=left;verticalAlign=top;spacingLeft=4;spacingRight=4;overflow=hidden;rotatable=0;points=[[0,0.5],[1,0.5]];portConstraint=eastwest;whiteSpace=wrap;html=1;" parent="QM-WjJRXP1hA1JC_6yWo-23" vertex="1">
          <mxGeometry y="26" width="356" height="26" as="geometry" />
        </mxCell>
        <mxCell id="QM-WjJRXP1hA1JC_6yWo-31" value="+ data_frame: pd.DataFrame" style="text;strokeColor=none;fillColor=none;align=left;verticalAlign=top;spacingLeft=4;spacingRight=4;overflow=hidden;rotatable=0;points=[[0,0.5],[1,0.5]];portConstraint=eastwest;whiteSpace=wrap;html=1;" parent="QM-WjJRXP1hA1JC_6yWo-23" vertex="1">
          <mxGeometry y="52" width="356" height="26" as="geometry" />
        </mxCell>
        <mxCell id="QM-WjJRXP1hA1JC_6yWo-25" value="" style="line;strokeWidth=1;fillColor=none;align=left;verticalAlign=middle;spacingTop=-1;spacingLeft=3;spacingRight=3;rotatable=0;labelPosition=right;points=[];portConstraint=eastwest;strokeColor=inherit;" parent="QM-WjJRXP1hA1JC_6yWo-23" vertex="1">
          <mxGeometry y="78" width="356" height="8" as="geometry" />
        </mxCell>
        <mxCell id="QM-WjJRXP1hA1JC_6yWo-26" value="+ __init__(period_time_boundaries: list[tuple[int, int]]):&lt;br&gt;&lt;span style=&quot;&quot;&gt; &lt;/span&gt;&lt;span style=&quot;&quot;&gt; &lt;/span&gt;&lt;span style=&quot;white-space: pre;&quot;&gt; &lt;/span&gt;PeriodDynamic" style="text;strokeColor=none;fillColor=none;align=left;verticalAlign=top;spacingLeft=4;spacingRight=4;overflow=hidden;rotatable=0;points=[[0,0.5],[1,0.5]];portConstraint=eastwest;whiteSpace=wrap;html=1;" parent="QM-WjJRXP1hA1JC_6yWo-23" vertex="1">
          <mxGeometry y="86" width="356" height="44" as="geometry" />
        </mxCell>
        <mxCell id="QM-WjJRXP1hA1JC_6yWo-32" value="+ createMeasrementTimes():&lt;br&gt;&lt;span style=&quot;&quot;&gt; &lt;/span&gt;&lt;span style=&quot;white-space: pre;&quot;&gt; &lt;/span&gt;PeriodDynamic" style="text;strokeColor=none;fillColor=none;align=left;verticalAlign=top;spacingLeft=4;spacingRight=4;overflow=hidden;rotatable=0;points=[[0,0.5],[1,0.5]];portConstraint=eastwest;whiteSpace=wrap;html=1;" parent="QM-WjJRXP1hA1JC_6yWo-23" vertex="1">
          <mxGeometry y="130" width="356" height="40" as="geometry" />
        </mxCell>
        <mxCell id="QM-WjJRXP1hA1JC_6yWo-33" value="SIgnOfDisease" style="swimlane;fontStyle=1;align=center;verticalAlign=top;childLayout=stackLayout;horizontal=1;startSize=26;horizontalStack=0;resizeParent=1;resizeParentMax=0;resizeLast=0;collapsible=1;marginBottom=0;whiteSpace=wrap;html=1;" parent="1" vertex="1">
          <mxGeometry x="980" y="130" width="340" height="170" as="geometry" />
        </mxCell>
        <mxCell id="QM-WjJRXP1hA1JC_6yWo-34" value="+ period_time_boundaries: list[tuple[int, int]]" style="text;strokeColor=none;fillColor=none;align=left;verticalAlign=top;spacingLeft=4;spacingRight=4;overflow=hidden;rotatable=0;points=[[0,0.5],[1,0.5]];portConstraint=eastwest;whiteSpace=wrap;html=1;" parent="QM-WjJRXP1hA1JC_6yWo-33" vertex="1">
          <mxGeometry y="26" width="340" height="26" as="geometry" />
        </mxCell>
        <mxCell id="QM-WjJRXP1hA1JC_6yWo-35" value="+ data_frame: pd.DataFrame" style="text;strokeColor=none;fillColor=none;align=left;verticalAlign=top;spacingLeft=4;spacingRight=4;overflow=hidden;rotatable=0;points=[[0,0.5],[1,0.5]];portConstraint=eastwest;whiteSpace=wrap;html=1;" parent="QM-WjJRXP1hA1JC_6yWo-33" vertex="1">
          <mxGeometry y="52" width="340" height="26" as="geometry" />
        </mxCell>
        <mxCell id="QM-WjJRXP1hA1JC_6yWo-36" value="" style="line;strokeWidth=1;fillColor=none;align=left;verticalAlign=middle;spacingTop=-1;spacingLeft=3;spacingRight=3;rotatable=0;labelPosition=right;points=[];portConstraint=eastwest;strokeColor=inherit;" parent="QM-WjJRXP1hA1JC_6yWo-33" vertex="1">
          <mxGeometry y="78" width="340" height="8" as="geometry" />
        </mxCell>
        <mxCell id="QM-WjJRXP1hA1JC_6yWo-37" value="+ __init__(exemple_count_boundaries: list[tuple[int, int]]):&lt;br&gt;&lt;span style=&quot;&quot;&gt; &lt;/span&gt;&lt;span style=&quot;&quot;&gt; &lt;/span&gt;&lt;span style=&quot;white-space: pre;&quot;&gt; &lt;/span&gt;PeriodDynamic" style="text;strokeColor=none;fillColor=none;align=left;verticalAlign=top;spacingLeft=4;spacingRight=4;overflow=hidden;rotatable=0;points=[[0,0.5],[1,0.5]];portConstraint=eastwest;whiteSpace=wrap;html=1;" parent="QM-WjJRXP1hA1JC_6yWo-33" vertex="1">
          <mxGeometry y="86" width="340" height="44" as="geometry" />
        </mxCell>
        <mxCell id="QM-WjJRXP1hA1JC_6yWo-38" value="+ createMeasrementTimes():&lt;br&gt;&lt;span style=&quot;&quot;&gt; &lt;/span&gt;&lt;span style=&quot;white-space: pre;&quot;&gt; &lt;/span&gt;PeriodDynamic" style="text;strokeColor=none;fillColor=none;align=left;verticalAlign=top;spacingLeft=4;spacingRight=4;overflow=hidden;rotatable=0;points=[[0,0.5],[1,0.5]];portConstraint=eastwest;whiteSpace=wrap;html=1;" parent="QM-WjJRXP1hA1JC_6yWo-33" vertex="1">
          <mxGeometry y="130" width="340" height="40" as="geometry" />
        </mxCell>
      </root>
    </mxGraphModel>
  </diagram>
</mxfile>
